<svg width="32" height="32" viewBox="0 0 32 32" fill="none" xmlns="http://www.w3.org/2000/svg">
<rect width="32" height="32" fill="#E8E8E8"/>
<path d="M30.2459 19.08V21.132H27.7739V27H24.9779V21.132H22.4939V19.08H30.2459Z" fill="#0000FF"/>
<path d="M16.6889 19.08C17.7209 19.08 18.5129 19.312 19.0649 19.776C19.6169 20.232 19.8929 20.84 19.8929 21.6C19.8929 22.472 19.6209 23.128 19.0769 23.568C18.5409 24.008 17.7569 24.228 16.7249 24.228L16.4489 24.372H15.1289V27H12.3929V19.08H16.6889ZM16.2089 22.536C16.5049 22.536 16.7249 22.484 16.8689 22.38C17.0209 22.268 17.0969 22.076 17.0969 21.804C17.0969 21.54 17.0209 21.352 16.8689 21.24C16.7249 21.128 16.5049 21.072 16.2089 21.072H15.1289V22.536H16.2089ZM17.8649 23.124L20.3369 27H17.3009L15.4529 23.532L17.8649 23.124Z" fill="#0000FF"/>
<path d="M9.90754 27H7.05154L6.69154 25.488H4.55554L4.18354 27H1.39954L3.96754 19.08H7.32754L9.90754 27ZM4.97554 23.748H6.28354L5.63554 21L4.97554 23.748Z" fill="#0000FF"/>
<path d="M29.8324 5.07999V9.59199C29.8324 10.776 29.5124 11.66 28.8724 12.244C28.2404 12.828 27.2844 13.12 26.0044 13.12C24.7244 13.12 23.7644 12.828 23.1244 12.244C22.4924 11.66 22.1764 10.776 22.1764 9.59199V5.07999H24.9844V9.80799C24.9844 10.208 25.0724 10.512 25.2484 10.72C25.4244 10.92 25.6764 11.02 26.0044 11.02C26.3404 11.02 26.5964 10.92 26.7724 10.72C26.9484 10.512 27.0364 10.208 27.0364 9.80799V5.07999H29.8324Z" fill="#0000FF"/>
<path d="M19.4979 5.07999V7.13199H17.0259V13H14.2298V7.13199H11.7458V5.07999H19.4979Z" fill="#0000FF"/>
<path d="M5.79262 4.95999C6.55262 4.95999 7.23262 5.05599 7.83262 5.24799C8.44062 5.43199 8.97662 5.71199 9.44062 6.08799L8.31262 7.88799C7.93662 7.62399 7.54062 7.41199 7.12462 7.25199C6.71662 7.09199 6.27262 7.01199 5.79262 7.01199C5.58462 7.01199 5.41662 7.02799 5.28862 7.05999C5.16862 7.09199 5.08062 7.13599 5.02462 7.19199C4.97662 7.24799 4.95262 7.31199 4.95262 7.38399C4.95262 7.47999 5.02462 7.55199 5.16862 7.59999C5.32062 7.64799 5.50862 7.69999 5.73262 7.75599L6.82462 8.00799C7.63262 8.19199 8.24062 8.46399 8.64862 8.82399C9.06462 9.18399 9.27262 9.68399 9.27262 10.324C9.27262 10.964 9.11662 11.492 8.80462 11.908C8.49262 12.316 8.06862 12.62 7.53262 12.82C7.00462 13.02 6.40462 13.12 5.73262 13.12C5.22862 13.12 4.72462 13.076 4.22062 12.988C3.71662 12.892 3.24862 12.756 2.81662 12.58C2.38462 12.396 2.01262 12.176 1.70062 11.92L2.80462 10.084C3.03662 10.268 3.31662 10.436 3.64462 10.588C3.97262 10.732 4.31262 10.848 4.66462 10.936C5.01662 11.024 5.34462 11.068 5.64862 11.068C5.84062 11.068 5.99262 11.052 6.10462 11.02C6.21662 10.988 6.29262 10.948 6.33262 10.9C6.38062 10.844 6.40462 10.78 6.40462 10.708C6.40462 10.596 6.35662 10.512 6.26062 10.456C6.17262 10.4 6.00862 10.344 5.76862 10.288L4.56862 10.024C4.14462 9.92799 3.74062 9.79999 3.35662 9.63999C2.97262 9.47999 2.66062 9.24799 2.42062 8.94399C2.18062 8.63199 2.06062 8.21199 2.06062 7.68399C2.06062 7.13999 2.20462 6.66399 2.49262 6.25599C2.78862 5.84799 3.21262 5.53199 3.76462 5.30799C4.32462 5.07599 5.00062 4.95999 5.79262 4.95999Z" fill="#0000FF"/>
</svg>
